# xmcd
# 
# Track frame offsets:
#     150
#     19090
#     38377
#     60960
#     80673
#     98127
#     119701
#     141543
#     145623
#     173584
#     193073
#     209347
# 
# Disc length: 3015
# 
# Revision: 3
# Processed by: cddbd v1.5.2PL0 Copyright (c) Steve Scherf et al.
# Submitted via: fre:ac v1.0.31
# 
DISCID=a30bc50c
DTITLE=Tony Joe White - Bad Mouthin'
DYEAR=2018
DGENRE=04.3-Blues Rock
TTITLE0=Bad Mouthin'
TTITLE1=Baby Please Don't Go
TTITLE2=Cool Town Woman
TTITLE3=Boom Boom
TTITLE4=Big Boss Man
TTITLE5=Sundown Blues
TTITLE6=Rich Woman Blues
TTITLE7=Bad Dreams
TTITLE8=Awful Dreams
TTITLE9=Down the Dirt Road Blues
TTITLE10=Stockholm Blues
TTITLE11=Heartbreak Hotel
EXTD=YEAR: 2018
EXTT0=
EXTT1=
EXTT2=
EXTT3=
EXTT4=
EXTT5=
EXTT6=
EXTT7=
EXTT8=
EXTT9=
EXTT10=
EXTT11=
PLAYORDER=
